<?xml version="1.0" standalone="no"?>
<!DOCTYPE svg PUBLIC "-//W3C//DTD SVG 20010904//EN"
 "http://www.w3.org/TR/2001/REC-SVG-20010904/DTD/svg10.dtd">
<svg version="1.0" xmlns="http://www.w3.org/2000/svg"
 width="253.000000pt" height="102.000000pt" viewBox="0 0 253.000000 102.000000"
 preserveAspectRatio="xMidYMid meet">

<g transform="translate(0.000000,102.000000) scale(0.100000,-0.100000)"
fill="#000000" stroke="none">
<path d="M1235 915 c-5 -2 -22 -6 -37 -9 l-28 -6 0 -251 c0 -314 4 -328 109
-345 39 -6 41 -5 41 19 0 14 2 31 5 39 3 8 -6 18 -25 25 l-30 11 0 261 c0 265
0 268 -35 256z"/>
<path d="M1770 911 l-35 -6 -3 -297 -2 -298 45 0 45 0 0 164 0 164 46 7 c38 5
52 3 73 -13 33 -25 38 -50 40 -199 l1 -123 46 0 46 0 -4 157 c-4 185 -12 209
-84 243 -38 19 -56 22 -105 16 l-59 -6 0 100 c0 55 -3 99 -7 99 -5 -1 -24 -4
-43 -8z"/>
<path d="M133 853 l-33 -4 0 -268 0 -269 83 -6 c191 -16 311 38 357 161 56
149 -1 307 -131 363 -53 22 -198 35 -276 23z m237 -105 c54 -28 80 -69 87
-143 14 -132 -65 -215 -203 -215 l-54 0 0 190 0 190 63 0 c45 0 75 -6 107 -22z"/>
<path d="M624 847 c-2 -7 -3 -118 -2 -247 l3 -235 105 -2 c98 -2 103 -2 78 12
-49 27 -58 60 -58 207 0 155 -8 178 -66 178 -27 0 -34 4 -34 20 0 15 7 20 29
20 15 0 56 3 90 6 l61 7 0 -177 0 -177 26 -26 c23 -23 31 -25 80 -20 38 4 71
16 105 37 l49 32 0 127 c0 140 -4 151 -57 151 -26 0 -33 4 -33 20 0 17 7 20
48 20 58 0 76 11 67 39 -6 21 -10 21 -246 21 -185 0 -241 -3 -245 -13z"/>
<path d="M1473 719 c-44 -13 -83 -62 -83 -105 0 -61 23 -89 103 -127 87 -41
103 -57 87 -86 -9 -18 -20 -21 -70 -21 -32 0 -70 4 -84 10 -28 10 -31 8 -40
-37 -7 -30 -5 -32 31 -42 56 -16 147 -13 193 5 62 25 88 94 58 158 -14 32 -41
50 -113 77 -57 21 -80 46 -69 73 8 22 46 30 109 22 l53 -6 6 32 c7 38 7 37
-41 49 -47 11 -98 10 -140 -2z"/>
<path d="M2197 723 c-32 -5 -42 -22 -33 -57 6 -24 8 -25 75 -19 65 5 71 4 95
-20 14 -14 26 -36 26 -49 0 -21 -3 -23 -51 -19 -71 4 -134 -15 -165 -52 -23
-27 -26 -38 -22 -84 6 -67 32 -97 100 -114 50 -12 174 -8 211 7 17 6 18 19 15
163 -3 169 -10 192 -63 227 -26 17 -133 27 -188 17z m163 -288 l0 -55 -32 -2
c-61 -2 -83 3 -100 24 -40 47 -4 88 77 88 l55 0 0 -55z"/>
<path d="M1030 395 l-54 -35 62 0 62 0 0 35 c0 19 -3 35 -7 35 -5 0 -33 -16
-63 -35z"/>
<path d="M1050 160 c0 -27 5 -50 10 -50 6 0 10 9 10 20 0 26 14 25 34 -2 l17
-23 -6 22 c-3 12 -2 30 3 40 15 28 3 43 -34 43 l-34 0 0 -50z m58 23 c-5 -26
-38 -29 -38 -4 0 15 6 21 21 21 14 0 19 -5 17 -17z"/>
<path d="M1151 173 c-1 -39 17 -73 39 -73 22 0 40 34 39 73 l-2 42 -6 -43 c-4
-23 -13 -48 -19 -54 -18 -18 -34 3 -43 54 l-6 43 -2 -42z"/>
<path d="M1262 163 l-2 -53 33 1 c29 2 29 2 5 6 -24 4 -27 9 -31 51 l-3 47 -2
-52z"/>
<path d="M1363 203 l27 -4 -30 -45 -31 -44 43 2 c37 1 38 2 10 5 l-32 4 30 45
31 44 -38 -1 c-30 -2 -32 -3 -10 -6z"/>
<path d="M1448 203 c27 -5 27 -5 -3 -53 l-25 -40 37 1 c30 2 32 3 11 6 l-28 4
25 37 c32 47 32 52 -7 51 -24 -1 -27 -3 -10 -6z"/>
</g>
</svg>
